<svg width="129" height="43" viewBox="0 0 129 43" fill="none" xmlns="http://www.w3.org/2000/svg">
<path d="M18.883 10.6355H18.3059L14.6902 23.4196C14.5932 23.7423 14.4016 23.874 14.0825 23.874H9.76196C9.44277 23.874 9.2487 23.7449 9.15423 23.4196L5.53849 10.6355H4.9614L5.05843 23.3886C5.05843 23.7114 4.89756 23.874 4.57838 23.874H0.480056C0.160871 23.874 0 23.7114 0 23.3886V2.80396C0 2.48119 0.160871 2.34951 0.480056 2.34951H7.26464C7.58383 2.34951 7.77789 2.44763 7.87237 2.77039L11.4575 15.4253L11.7128 17.2044H12.3537L12.5453 15.5209L16.161 2.76781C16.258 2.44504 16.4495 2.34692 16.7381 2.34692H23.395C23.7142 2.34692 23.8751 2.47603 23.8751 2.80138V23.3886C23.8751 23.7114 23.7142 23.874 23.395 23.874H19.2966C18.9775 23.874 18.8166 23.7114 18.8166 23.3886L18.8804 10.6355H18.883Z" fill="white"/>
<path d="M34.1196 31.6281C35.976 31.6281 37.2885 30.1382 37.2885 28.3901L37.2247 21.7541H36.4893V23.2104C35.496 24.2149 33.8643 24.6357 32.5518 24.6357C28.9999 24.6357 25.8311 22.5649 25.8311 18.7769V8.90548C25.8311 8.58272 25.9919 8.42004 26.3111 8.42004H30.4094C30.7286 8.42004 30.8895 8.58272 30.8895 8.90548V18.1624C30.8895 20.0731 31.8828 20.9459 33.7698 20.9459C35.5292 20.9459 37.2911 20.006 37.2911 18.1624V8.90548C37.2911 8.58272 37.452 8.42004 37.7379 8.42004H41.8669C42.1861 8.42004 42.347 8.58272 42.347 8.90548V28.3256C42.347 33.0509 38.3457 35.5116 33.8975 35.5116C29.4493 35.5116 25.9919 33.7325 25.8311 29.1028C25.8311 28.78 25.9919 28.6174 26.3111 28.6174H30.0877C30.4069 28.6174 30.5371 28.78 30.5677 29.1028C30.7286 30.9154 32.2633 31.6281 34.1196 31.6281Z" fill="white"/>
<path d="M75.1844 20.6697C76.2722 20.6697 77.6179 20.2824 78.1618 19.376C78.3226 19.0533 78.481 18.9216 78.7695 18.9216H83.0594C83.3479 18.9216 83.4424 19.0842 83.3479 19.376C82.1325 22.7095 78.9304 24.295 75.4091 24.295C69.4544 24.295 66.2549 21.4779 66.2549 15.5545C66.2549 10.2457 69.9038 7.43115 75.1206 7.43115C81.203 7.43115 83.6339 11.1856 83.7309 16.6235C83.7309 16.9463 83.5701 17.1089 83.2841 17.1089H69.937V17.8216H71.0886C71.344 17.8216 71.5049 17.9197 71.5687 18.1779C72.0487 19.7324 73.2974 20.6697 75.1844 20.6697ZM78.0341 14.1627C78.3226 14.1627 78.4835 14.0001 78.4171 13.6773C78.1286 12.0583 76.8161 11.0229 74.9597 11.0229C73.231 11.0229 71.9824 12.1229 71.5993 13.6773C71.5355 14.0001 71.6632 14.1627 71.9824 14.1627H78.0315H78.0341Z" fill="white"/>
<path d="M95.7961 7.40015C99.5727 7.40015 101.973 9.471 101.973 12.8045V23.3886C101.973 23.7114 101.845 23.8741 101.524 23.8741H97.3307C97.0115 23.8741 96.8813 23.7114 96.8813 23.3886V14.1963C96.8813 11.9627 96.2736 11.2501 93.9678 11.2501C91.662 11.2501 90.4159 12.3836 90.4159 14.7127V23.386C90.4159 23.7088 90.255 23.8715 89.9358 23.8715H85.8375C85.5183 23.8715 85.3574 23.7088 85.3574 23.386V8.30647C85.3574 7.9837 85.5183 7.82103 85.8375 7.82103H89.7417C90.0609 7.82103 90.2218 7.9837 90.2218 8.30647L90.2856 10.2818H91.021C91.0542 9.95902 91.0542 9.66725 91.0542 9.31091C91.0542 7.72549 94.4785 7.40015 95.7909 7.40015H95.7961Z" fill="white"/>
<path d="M103.786 3.79034C103.582 3.58377 103.582 3.35655 103.809 3.12674L106.728 0.175377C106.955 -0.0544311 107.18 -0.0544312 107.384 0.152138L109.646 2.43989C109.874 2.6697 109.874 2.89693 109.646 3.12674L106.728 6.0781C106.501 6.30791 106.276 6.30791 106.049 6.0781L103.786 3.79034ZM104.185 8.30646C104.185 7.9837 104.345 7.82103 104.665 7.82103H108.794C109.113 7.82103 109.274 7.9837 109.274 8.30646V23.3886C109.274 23.7114 109.113 23.8741 108.794 23.8741H104.665C104.345 23.8741 104.185 23.7114 104.185 23.3886V8.30646Z" fill="white"/>
<path d="M119.996 20.6697C121.084 20.6697 122.429 20.2824 122.973 19.376C123.134 19.0533 123.292 18.9216 123.581 18.9216H127.871C128.159 18.9216 128.254 19.0842 128.159 19.376C126.944 22.7095 123.742 24.295 120.221 24.295C114.266 24.295 111.066 21.4779 111.066 15.5545C111.066 10.2457 114.715 7.43115 119.932 7.43115C126.014 7.43115 128.445 11.1856 128.542 16.6235C128.542 16.9463 128.382 17.1089 128.096 17.1089H114.749V17.8216H115.9C116.156 17.8216 116.316 17.9197 116.38 18.1779C116.86 19.7324 118.109 20.6697 119.996 20.6697ZM122.846 14.1627C123.134 14.1627 123.295 14.0001 123.229 13.6773C122.94 12.0583 121.628 11.0229 119.771 11.0229C118.043 11.0229 116.794 12.1229 116.411 13.6773C116.347 14.0001 116.475 14.1627 116.794 14.1627H122.843H122.846Z" fill="white"/>
<path d="M69.1719 1.30631C68.9396 2.28493 68.4672 3.14477 67.8339 3.8342C66.9121 4.84122 65.6532 5.48675 64.2846 5.62877C64.2182 5.63652 64.1492 5.64168 64.0828 5.64684C63.544 5.68299 62.9925 5.64426 62.4435 5.51516C62.4001 5.50483 62.3516 5.4945 62.3056 5.48417C62.2724 5.47384 62.2392 5.4661 62.206 5.45577C60.7071 5.10976 59.2108 5.72173 58.3528 6.89401C57.3748 6.00318 56.8948 4.61658 57.2089 3.22998C57.3774 2.4915 57.7502 1.85371 58.2507 1.36053C59.1316 0.498103 60.416 0.0849644 61.703 0.38449C62.2162 0.503267 62.681 0.725329 63.0768 1.01969C63.3883 1.24434 63.7228 1.43799 64.0828 1.59292C64.3995 1.73494 64.734 1.84855 65.0838 1.9286C66.026 2.14549 66.9657 2.11193 67.8339 1.87179C68.3037 1.74268 68.7506 1.54902 69.1719 1.30372V1.30631Z" fill="#F6A437"/>
<path d="M64.0673 33.0638C64.0673 33.0431 64.0673 33.0225 64.0647 33.0018V32.9708C63.9984 30.789 63.4774 28.7155 62.5812 26.859C62.4305 26.5465 62.2696 26.2367 62.096 25.9372C61.6696 25.1832 61.1742 24.4679 60.6303 23.8017C60.6635 23.7733 60.6941 23.7501 60.7248 23.7191C60.8805 23.5926 61.0261 23.4583 61.1716 23.3111C61.1716 23.3111 61.1742 23.3103 61.1793 23.3086C61.1793 23.3086 61.187 23.3086 61.187 23.3008C61.5572 22.9471 61.8994 22.5597 62.2058 22.144C62.8442 21.2868 63.3395 20.3185 63.6613 19.2675C63.9345 18.3793 64.0826 17.4317 64.0826 16.453C64.0826 15.1181 63.8094 13.8425 63.314 12.6909C63.2808 12.6083 63.2476 12.5282 63.2068 12.4508C62.9336 11.8517 62.599 11.2888 62.2084 10.7672C61.1359 9.32381 59.6651 8.19801 57.9594 7.56281C57.0554 7.22197 56.08 7.02314 55.0688 6.98958C54.9488 6.98183 54.8314 6.97925 54.7088 6.97925C51.6421 6.97925 48.92 8.46913 47.2118 10.7698C46.0321 12.3526 45.335 14.3228 45.335 16.4556C45.335 16.5073 45.335 16.5563 45.3375 16.608C45.3401 17.0185 45.3733 17.4213 45.432 17.819C45.4754 18.1237 45.5316 18.4284 45.6056 18.7227C45.649 18.9086 45.7001 19.0894 45.7537 19.2701C46.0371 20.1945 46.4559 21.0544 46.9871 21.8342C47.0586 21.94 47.1326 22.0459 47.2092 22.1466C48.1004 23.3499 49.2699 24.3285 50.6181 24.9869C51.854 25.5963 53.2405 25.9346 54.7062 25.9346C55.5004 25.9346 56.2664 25.8365 57.0018 25.648C57.0018 25.648 57.0044 25.648 57.0095 25.6454C57.2469 25.5834 57.487 25.5163 57.7193 25.4311C57.7934 25.5989 57.8674 25.7642 57.9338 25.9346C58.3271 26.8977 58.6258 27.9099 58.8148 28.9634C58.9654 29.7923 59.0497 30.6495 59.0599 31.5223C59.0625 31.5868 59.0625 31.654 59.0625 31.7185C59.0625 31.7831 59.0625 31.8476 59.0599 31.9122C58.9757 33.5647 57.8496 34.9333 56.3379 35.3645C56.0111 35.4574 55.6689 35.5065 55.3165 35.5065C53.6593 35.5065 52.2498 34.4194 51.7569 32.914C51.6318 32.537 51.5654 32.1368 51.5654 31.7185C51.5654 30.3681 52.26 29.1855 53.3095 28.5141C53.0312 28.385 52.7452 28.2791 52.4464 28.1991C51.8949 28.0467 51.3101 27.977 50.7075 28.0054C48.2612 28.1216 46.2465 29.8 45.5775 32.0439C45.4218 32.5577 45.34 33.1051 45.34 33.6654C45.34 33.7584 45.3426 33.8513 45.3477 33.9469C45.3503 34.0424 45.3579 34.1405 45.3682 34.2361C45.4192 34.9462 45.5469 35.6304 45.7435 36.2811C46.867 40.0097 50.1866 42.7287 54.1189 42.974C54.456 42.9972 54.7956 43.0024 55.1378 42.9843C57.6146 42.8681 59.8234 41.7914 61.427 40.1233C62.9744 38.5198 63.955 36.3637 64.0724 33.9959C64.0801 33.8488 64.0826 33.7042 64.0826 33.557V33.4795C64.0826 33.3478 64.0801 33.2136 64.0724 33.0819C64.0724 33.0741 64.0724 33.069 64.0699 33.0612L64.0673 33.0638ZM59.5962 19.2727C59.1672 20.0344 58.5671 20.6877 57.8521 21.1757C57.8342 21.1886 57.8164 21.2041 57.7959 21.2119L57.9773 22.1466L58.0819 22.7018L56.6494 22.1466H54.7062C52.9188 22.1466 51.3203 21.2997 50.2938 19.9802C50.1942 19.8537 50.0997 19.722 50.0104 19.5851C49.944 19.4844 49.8801 19.3786 49.8189 19.2701C49.6478 18.968 49.5022 18.6478 49.3924 18.3147C49.2954 18.0359 49.2213 17.7493 49.1703 17.4549C49.1141 17.1321 49.0835 16.7965 49.0835 16.4556C49.0835 13.3158 51.6012 10.7698 54.7062 10.7698C55.0867 10.7698 55.4569 10.8059 55.8119 10.8782C57.7653 11.2733 59.351 12.6831 60.0073 14.5449C60.2192 15.1387 60.3341 15.7843 60.3341 16.4556C60.3341 17.4781 60.0685 18.4413 59.5987 19.2701L59.5962 19.2727Z" fill="#F6A437"/>
</svg>
