<svg width="129" height="43" viewBox="0 0 129 43" fill="none" xmlns="http://www.w3.org/2000/svg">
<path d="M18.8856 10.6355H18.3085L14.6927 23.4196C14.5957 23.7423 14.4042 23.874 14.085 23.874H9.76451C9.44533 23.874 9.25126 23.7449 9.15679 23.4196L5.54106 10.6355H4.96397L5.061 23.3886C5.061 23.7113 4.90013 23.874 4.58095 23.874H0.480055C0.160869 23.874 0 23.7113 0 23.3886V2.80394C0 2.48118 0.160869 2.34949 0.480055 2.34949H7.26466C7.58384 2.34949 7.77791 2.44761 7.87238 2.77037L11.4575 15.4253L11.7128 17.2044H12.3537L12.5453 15.5209L16.1635 2.77037C16.2606 2.44761 16.4521 2.34949 16.7406 2.34949H23.3976C23.7167 2.34949 23.8776 2.47859 23.8776 2.80394V23.3886C23.8776 23.7113 23.7167 23.874 23.3976 23.874H19.2992C18.98 23.874 18.8192 23.7113 18.8192 23.3886L18.883 10.6355H18.8856Z" fill="#892AEA"/>
<path d="M34.1226 31.6281C35.979 31.6281 37.2915 30.1382 37.2915 28.3901L37.2276 21.7541H36.4922V23.2104C35.4989 24.2149 33.8672 24.6357 32.5547 24.6357C29.0029 24.6357 25.834 22.5649 25.834 18.7769V8.90548C25.834 8.58272 25.9949 8.42004 26.314 8.42004H30.4124C30.7316 8.42004 30.8924 8.58272 30.8924 8.90548V18.1624C30.8924 20.0731 31.8857 20.9459 33.7728 20.9459C35.5321 20.9459 37.294 20.006 37.294 18.1624V8.90548C37.294 8.58272 37.4549 8.42004 37.7409 8.42004H41.8699C42.189 8.42004 42.3499 8.58272 42.3499 8.90548V28.3256C42.3499 33.0509 38.3486 35.5116 33.9004 35.5116C29.4523 35.5116 25.9949 33.7325 25.834 29.1028C25.834 28.78 25.9949 28.6174 26.314 28.6174H30.0906C30.4098 28.6174 30.5401 28.78 30.5707 29.1028C30.7316 30.9154 32.2662 31.6281 34.1226 31.6281Z" fill="#892AEA"/>
<path d="M75.1873 20.6697C76.2751 20.6697 77.6208 20.2824 78.1647 19.376C78.3256 19.0533 78.4839 18.9216 78.7724 18.9216H83.0623C83.3508 18.9216 83.4453 19.0842 83.3508 19.376C82.1354 22.7095 78.9333 24.295 75.412 24.295C69.4573 24.295 66.2578 21.4779 66.2578 15.5545C66.2578 10.2457 69.9067 7.43115 75.1235 7.43115C81.2059 7.43115 83.6368 11.1856 83.7338 16.6235C83.7338 16.9463 83.573 17.1089 83.287 17.1089H69.9399V17.8216H71.0916C71.3469 17.8216 71.5078 17.9197 71.5716 18.1779C72.0517 19.7324 73.3003 20.6697 75.1873 20.6697ZM78.037 14.1627C78.3256 14.1627 78.4864 14.0001 78.42 13.6773C78.1315 12.0583 76.819 11.0229 74.9626 11.0229C73.2339 11.0229 71.9853 12.1229 71.6022 13.6773C71.5384 14.0001 71.6661 14.1627 71.9853 14.1627H78.0345H78.037Z" fill="#892AEA"/>
<path d="M95.799 7.40015C99.5756 7.40015 101.976 9.471 101.976 12.8045V23.3886C101.976 23.7114 101.848 23.8741 101.526 23.8741H97.3336C97.0144 23.8741 96.8842 23.7114 96.8842 23.3886V14.1963C96.8842 11.9627 96.2765 11.2501 93.9707 11.2501C91.6649 11.2501 90.4188 12.3836 90.4188 14.7127V23.386C90.4188 23.7088 90.2579 23.8715 89.9387 23.8715H85.8404C85.5212 23.8715 85.3604 23.7088 85.3604 23.386V8.30647C85.3604 7.9837 85.5212 7.82103 85.8404 7.82103H89.7447C90.0639 7.82103 90.2247 7.9837 90.2247 8.30647L90.2886 10.2818H91.024C91.0572 9.95902 91.0572 9.66725 91.0572 9.31091C91.0572 7.72549 94.4814 7.40015 95.7939 7.40015H95.799Z" fill="#892AEA"/>
<path d="M103.789 3.79034C103.585 3.58377 103.585 3.35655 103.812 3.12674L106.731 0.175377C106.958 -0.0544311 107.183 -0.0544312 107.387 0.152138L109.649 2.43989C109.877 2.6697 109.877 2.89693 109.649 3.12674L106.731 6.0781C106.503 6.30791 106.279 6.30791 106.052 6.0781L103.789 3.79034ZM104.187 8.30646C104.187 7.9837 104.348 7.82103 104.668 7.82103H108.797C109.116 7.82103 109.277 7.9837 109.277 8.30646V23.3886C109.277 23.7114 109.116 23.8741 108.797 23.8741H104.668C104.348 23.8741 104.187 23.7114 104.187 23.3886V8.30646Z" fill="#892AEA"/>
<path d="M119.998 20.6697C121.086 20.6697 122.431 20.2824 122.975 19.376C123.136 19.0533 123.294 18.9216 123.583 18.9216H127.873C128.161 18.9216 128.256 19.0842 128.161 19.376C126.946 22.7095 123.744 24.295 120.223 24.295C114.268 24.295 111.068 21.4779 111.068 15.5545C111.068 10.2457 114.717 7.43115 119.934 7.43115C126.016 7.43115 128.447 11.1856 128.544 16.6235C128.544 16.9463 128.384 17.1089 128.098 17.1089H114.75V17.8216H115.902C116.157 17.8216 116.318 17.9197 116.382 18.1779C116.862 19.7324 118.111 20.6697 119.998 20.6697ZM122.848 14.1627C123.136 14.1627 123.297 14.0001 123.231 13.6773C122.942 12.0583 121.63 11.0229 119.773 11.0229C118.044 11.0229 116.796 12.1229 116.413 13.6773C116.349 14.0001 116.477 14.1627 116.796 14.1627H122.845H122.848Z" fill="#892AEA"/>
<path d="M69.1739 1.30643C68.9415 2.28505 68.4691 3.1449 67.8359 3.83432C66.9141 4.84135 65.6552 5.48688 64.2865 5.62889C64.2201 5.63664 64.1512 5.6418 64.0848 5.64697C63.546 5.68312 62.9945 5.64438 62.4455 5.51528C62.4021 5.50495 62.3535 5.49462 62.3076 5.48429C62.2744 5.47397 62.2412 5.46622 62.208 5.45589C60.7091 5.10989 59.2128 5.72185 58.3548 6.89413C57.3768 6.0033 56.8967 4.6167 57.2108 3.23011C57.3794 2.49162 57.7522 1.85384 58.2526 1.36065C59.1336 0.498225 60.418 0.0850864 61.705 0.384612C62.2182 0.503389 62.6829 0.725452 63.0787 1.01981C63.3903 1.24446 63.7248 1.43812 64.0848 1.59304C64.4014 1.73506 64.7359 1.84867 65.0858 1.92872C66.028 2.14562 66.9677 2.11205 67.8359 1.87191C68.3057 1.74281 68.7526 1.54915 69.1739 1.30385V1.30643Z" fill="#F6A437"/>
<path d="M64.0693 33.0639C64.0693 33.0433 64.0693 33.0226 64.0667 33.0019V32.971C64.0003 30.7891 63.4794 28.7156 62.5831 26.8591C62.4325 26.5467 62.2716 26.2368 62.098 25.9373C61.6715 25.1833 61.1762 24.4681 60.6323 23.8019C60.6655 23.7735 60.6961 23.7502 60.7267 23.7192C60.8825 23.5927 61.0281 23.4584 61.1736 23.3113C61.1736 23.3113 61.1762 23.3104 61.1813 23.3087C61.1813 23.3087 61.1889 23.3087 61.1889 23.3009C61.5592 22.9472 61.9013 22.5599 62.2078 22.1441C62.8461 21.2869 63.3415 20.3186 63.6633 19.2677C63.9365 18.3794 64.0846 17.4318 64.0846 16.4532C64.0846 15.1182 63.8114 13.8426 63.316 12.691C63.2828 12.6084 63.2496 12.5283 63.2087 12.4509C62.9355 11.8518 62.601 11.2889 62.2103 10.7673C61.1379 9.32393 59.6671 8.19813 57.9613 7.56293C57.0574 7.22209 56.082 7.02327 55.0708 6.9897C54.9508 6.98195 54.8333 6.97937 54.7107 6.97937C51.644 6.97937 48.922 8.46925 47.2137 10.7699C46.034 12.3528 45.3369 14.3229 45.3369 16.4557C45.3369 16.5074 45.3369 16.5564 45.3395 16.6081C45.342 17.0186 45.3752 17.4215 45.4339 17.8191C45.4774 18.1238 45.5335 18.4285 45.6076 18.7228C45.651 18.9088 45.7021 19.0895 45.7557 19.2702C46.0391 20.1946 46.4579 21.0545 46.989 21.8343C47.0605 21.9402 47.1346 22.046 47.2112 22.1467C48.1023 23.35 49.2718 24.3286 50.6201 24.9871C51.856 25.5964 53.2425 25.9347 54.7082 25.9347C55.5023 25.9347 56.2684 25.8366 57.0038 25.6481C57.0038 25.6481 57.0063 25.6481 57.0114 25.6455C57.2489 25.5835 57.4889 25.5164 57.7213 25.4312C57.7954 25.599 57.8694 25.7643 57.9358 25.9347C58.329 26.8978 58.6278 27.91 58.8167 28.9635C58.9674 29.7924 59.0517 30.6496 59.0619 31.5224C59.0644 31.5869 59.0644 31.6541 59.0644 31.7186C59.0644 31.7832 59.0644 31.8477 59.0619 31.9123C58.9776 33.5648 57.8515 34.9334 56.3399 35.3646C56.013 35.4575 55.6709 35.5066 55.3185 35.5066C53.6613 35.5066 52.2517 34.4195 51.7589 32.9142C51.6338 32.5372 51.5674 32.1369 51.5674 31.7186C51.5674 30.3682 52.262 29.1856 53.3114 28.5142C53.0331 28.3851 52.7471 28.2793 52.4484 28.1992C51.8968 28.0469 51.3121 27.9771 50.7094 28.0056C48.2632 28.1217 46.2485 29.8001 45.5795 32.044C45.4237 32.5578 45.342 33.1052 45.342 33.6656C45.342 33.7585 45.3446 33.8515 45.3497 33.947C45.3522 34.0425 45.3599 34.1407 45.3701 34.2362C45.4212 34.9463 45.5489 35.6305 45.7455 36.2812C46.869 40.0098 50.1885 42.7288 54.1209 42.9741C54.4579 42.9973 54.7976 43.0025 55.1397 42.9844C57.6166 42.8682 59.8254 41.7915 61.429 40.1234C62.9764 38.5199 63.9569 36.3639 64.0744 33.9961C64.082 33.8489 64.0846 33.7043 64.0846 33.5571V33.4796C64.0846 33.348 64.082 33.2137 64.0744 33.082C64.0744 33.0742 64.0744 33.0691 64.0718 33.0613L64.0693 33.0639ZM59.5981 19.2728C59.1691 20.0346 58.5691 20.6878 57.8541 21.1759C57.8362 21.1888 57.8183 21.2043 57.7979 21.212L57.9792 22.1467L58.0839 22.7019L56.6514 22.1467H54.7082C52.9208 22.1467 51.3223 21.2998 50.2958 19.9803C50.1962 19.8538 50.1017 19.7221 50.0123 19.5853C49.9459 19.4846 49.8821 19.3787 49.8208 19.2702C49.6497 18.9681 49.5042 18.648 49.3944 18.3149C49.2974 18.036 49.2233 17.7494 49.1722 17.455C49.1161 17.1323 49.0854 16.7966 49.0854 16.4557C49.0854 13.3159 51.6032 10.7699 54.7082 10.7699C55.0887 10.7699 55.4589 10.8061 55.8138 10.8784C57.7673 11.2734 59.353 12.6833 60.0092 14.545C60.2212 15.1389 60.3361 15.7844 60.3361 16.4557C60.3361 17.4783 60.0705 18.4414 59.6007 19.2702L59.5981 19.2728Z" fill="#F6A437"/>
</svg>
